<svg width="74" height="33" viewBox="0 0 74 33" fill="none" xmlns="http://www.w3.org/2000/svg">
<path d="M60.0246 18.7023H72.4807V12.5365H60.0246V6.38311H73.3897V0C67.1152 1.97262 60.4925 3.86674 53.6382 5.63389V31.3987H73.5717V24.981H60.0246V18.7023Z" fill="#F76340"/>
<path d="M21.91 11.6927V31.3979H27.7819V10.7754C25.7915 11.1102 23.8323 11.4166 21.91 11.6927Z" fill="#F76340"/>
<path d="M44.7841 16.1173L39.3204 14.4529C37.8866 14.0069 37.2743 13.3106 37.2743 12.1246C37.2743 10.1562 39.0239 9.45784 40.5217 9.45784C42.8029 9.45784 44.4113 10.8422 44.8239 13.161L44.856 13.3428L50.779 12.088L50.7453 11.9176C50.329 9.82033 49.3676 8.09217 47.9646 6.81055C42.2154 8.1986 36.6023 9.37275 31.2047 10.3356C31.0301 11.0245 30.9393 11.7613 30.9393 12.5409C30.9393 17.5446 34.7319 19.2306 37.5869 20.0641L42.5406 21.4509C44.2325 21.9401 44.9226 22.6645 44.9226 23.9517C44.9226 25.6646 43.5691 26.6875 41.3019 26.6875C38.6147 26.6875 36.9844 25.3358 36.4565 22.6693L36.4214 22.4922L30.2415 23.777L30.2615 23.9382C30.8726 28.8366 35.0864 32.0013 40.9967 32.0013C47.1061 32.0013 51.0539 28.7191 51.0539 23.6392C51.0542 19.7859 49.1208 17.4661 44.7841 16.1173Z" fill="#F76340"/>
<path d="M18.3098 18.2211C18.3098 15.8188 17.5433 13.8006 16.1424 12.3535C10.3305 13.0577 4.90839 13.4755 0 13.613V31.3993H5.20805V26.733H9.27669L13.0744 31.3993H19.6117L14.539 25.4324C16.9263 23.9901 18.3098 21.4166 18.3098 18.2211ZM9.41257 22.067H5.20805V14.5732H9.41257C11.5824 14.5732 13.3727 15.9589 13.3727 18.2213C13.3727 20.5401 11.5824 22.067 9.41257 22.067Z" fill="#F76340"/>
</svg>
